<svg xmlns="http://www.w3.org/2000/svg" baseProfile="full" version="1.1" width="1860px" height="795px" style="fill: none; width: 1860px; height: 795px;"><path d="" style="stroke-width: 15; stroke-linecap: round; stroke-linejoin: round; stroke: rgb(204, 204, 204); fill: none;"/><path d="" style="stroke-width: 15; stroke-linecap: round; stroke-linejoin: round; stroke: rgb(153, 153, 153); fill: none;"/><path d="M600,300 A60,105 0 0,0 660,405 A60,105 0 0,0 720,300 A90,45 0 0,0 630,255 A30,45 0 0,0 600,300 M600,330 A15,45 0 0,1 585,285 A75,75 0 0,1 660,210 A75,75 0 0,1 735,285 A15,45 0 0,1 720,330 " style="stroke-width: 15; stroke-linecap: round; stroke-linejoin: round; stroke: rgb(255, 255, 255); fill: none;"/></svg>