<svg xmlns="http://www.w3.org/2000/svg" baseProfile="full" version="1.1" width="1860px" height="795px" style="fill: none; width: 1860px; height: 795px;"><path d="" style="stroke-width: 15; stroke-linecap: round; stroke-linejoin: round; stroke: rgb(204, 204, 204); fill: none;"/><path d="" style="stroke-width: 15; stroke-linecap: round; stroke-linejoin: round; stroke: rgb(153, 153, 153); fill: none;"/><path d="M600,300 L600,300 L600,330 M645,300 L645,300 L645,330 M690,300 L690,300 L690,330 M735,300 L735,300 L735,330 M780,300 L780,300 L780,330 M825,300 L825,300 L825,330 M870,300 L870,300 L870,330 M915,300 L915,300 L915,330 M960,300 L960,300 L960,330 M1005,300 L1005,300 L1005,330 M1050,300 L1050,300 L1050,330 M1095,300 L1095,300 L1095,330 M1140,300 L1140,300 L1140,330 M1185,300 L1185,300 L1185,330 M1230,300 L1230,300 L1230,330 M1275,300 L1275,300 L1275,330 " style="stroke-width: 22; stroke-linecap: round; stroke-linejoin: round; stroke: rgb(255, 255, 255); fill: none;"/></svg>