<?xml version="1.0" encoding="utf-8"?>
<!-- Generator: Adobe Illustrator 24.1.3, SVG Export Plug-In . SVG Version: 6.00 Build 0)  -->
<svg version="1.1" id="Layer_1" focusable="false" xmlns="http://www.w3.org/2000/svg" xmlns:xlink="http://www.w3.org/1999/xlink"
	 x="0px" y="0px" viewBox="0 0 512 512" style="enable-background:new 0 0 512 512;" xml:space="preserve">
<style type="text/css">
	.st0{fill:#FFFFFF;}
</style>
<path class="st0" d="M256,40c118.6,0,216,96.1,216,216c0,119.3-96.6,216-216,216c-119.2,0-216-96.6-216-216
	C40,136.8,136.6,40,256,40 M256,8C119,8,8,119.1,8,256c0,137,111,248,248,248s248-111,248-248C504,119.1,393,8,256,8z M220,352h12
	V232h-12c-6.6,0-12-5.4-12-12v-8c0-6.6,5.4-12,12-12h48c6.6,0,12,5.4,12,12v140h12c6.6,0,12,5.4,12,12v8c0,6.6-5.4,12-12,12h-72
	c-6.6,0-12-5.4-12-12v-8C208,357.4,213.4,352,220,352z M256,112c-17.7,0-32,14.3-32,32s14.3,32,32,32s32-14.3,32-32
	S273.7,112,256,112z"/>
</svg>
