<?xml version="1.0" encoding="utf-8"?>
<!-- Generator: Adobe Illustrator 24.1.3, SVG Export Plug-In . SVG Version: 6.00 Build 0)  -->
<svg version="1.1" id="Layer_1" focusable="false" xmlns="http://www.w3.org/2000/svg" xmlns:xlink="http://www.w3.org/1999/xlink"
	 x="0px" y="0px" viewBox="0 0 576 512" style="enable-background:new 0 0 576 512;" xml:space="preserve">
<style type="text/css">
	.st0{fill:#FFFFFF;}
</style>
<path class="st0" d="M441.5,39.8C432.9,25.1,417.1,16,400,16H176c-17.1,0-32.9,9.1-41.5,23.8l-112,192c-8.7,14.9-8.7,33.4,0,48.4
	l112,192c8.6,14.7,24.4,23.8,41.5,23.8h224c17.1,0,32.9-9.1,41.5-23.8l112-192c8.7-14.9,8.7-33.4,0-48.4L441.5,39.8L441.5,39.8z
	 M525.8,264.1l-112,192c-2.9,4.9-8.2,7.9-13.8,7.9H176c-5.7,0-11-3-13.8-7.9l-112-192c-2.9-5-2.9-11.2,0-16.1l112-192
	c2.8-5,8.1-8,13.8-8h224c5.7,0,11,3,13.8,7.9l112,192C528.7,252.9,528.7,259.1,525.8,264.1z M382.8,342.3l-8.5,8.5
	c-4.7,4.7-12.3,4.7-17,0L288,281.5l-69.3,69.3c-4.7,4.7-12.3,4.7-17,0l-8.5-8.5c-4.7-4.7-4.7-12.3,0-17l69.3-69.3l-69.3-69.3
	c-4.7-4.7-4.7-12.3,0-17l8.5-8.5c4.7-4.7,12.3-4.7,17,0l69.3,69.3l69.3-69.3c4.7-4.7,12.3-4.7,17,0l8.5,8.5c4.7,4.7,4.7,12.3,0,17
	L313.5,256l69.3,69.3C387.4,330,387.4,337.6,382.8,342.3z"/>
</svg>
