<?xml version="1.0" encoding="utf-8"?>
<!-- Generator: Adobe Illustrator 21.0.2, SVG Export Plug-In . SVG Version: 6.00 Build 0)  -->
<svg version="1.1" id="Layer_1" focusable="false" xmlns="http://www.w3.org/2000/svg" xmlns:xlink="http://www.w3.org/1999/xlink"
	 x="0px" y="0px" viewBox="0 0 640 512" style="enable-background:new 0 0 640 512;" xml:space="preserve">
<style type="text/css">
	.st0{fill:#FFFFFF;}
</style>
<path class="st0" d="M36,3.5C29.1-2,19-0.9,13.5,6l-10,12.5C-2,25.4-0.9,35.5,6,41l598,467.5c6.9,5.5,17,4.4,22.5-2.5l10-12.5
	c5.5-6.9,4.4-17-2.5-22.5L36,3.5z M503.2,307.8c1.8-0.6,3.7-0.8,5-2.3l16.5-17.4c4.6-4.9,4.4-12.6-0.6-17.1
	c-47.7-43.4-105.7-68.6-165.5-76.3L503.2,307.8z M603.3,188.9c4.8,4.4,12.3,4.1,16.8-0.5l16.6-17.2c4.7-4.8,4.4-12.4-0.6-16.9
	C509.5,38.4,333.7,5.4,178.6,54.1l46.7,36.5C356,60.7,498.4,93.1,603.3,188.9z M3.9,154.2c-4.9,4.5-5.2,12.1-0.6,16.9l16.6,17.2
	c4.5,4.7,12,4.9,16.8,0.5c12.7-11.6,26.2-22,39.9-31.7l-39.3-30.7C25.9,135.1,14.7,144.3,3.9,154.2L3.9,154.2z M115.9,271
	c-5,4.5-5.2,12.3-0.6,17.1l16.5,17.4c4.5,4.7,11.8,5,16.6,0.6c19.7-17.8,41.5-31.8,64.5-42.5l-41.5-32.4
	C151.9,242.2,133.1,255.3,115.9,271z M240,400c0,44.2,35.8,80,80,80c41,0,74.5-31,79.1-70.8l-107.2-83.8
	C261.6,336.8,240,365.8,240,400z M320,368c17.6,0,32,14.4,32,32s-14.4,32-32,32s-32-14.4-32-32S302.4,368,320,368z"/>
</svg>
